<svg width="18.000000" height="18.000000" viewBox="0 0 18 18" fill="none" xmlns="http://www.w3.org/2000/svg" xmlns:xlink="http://www.w3.org/1999/xlink">
	<desc>
			Created with Pixso.
	</desc>
	<defs/>
	<path id="Vector" d="M8.4 17.91C7.9 17.91 7.42 17.71 7.06 17.36L0.38 10.67C0.21 10.5 0.1 10.28 0.08 10.04L-0.84 0.3C-0.85 0.14 -0.83 -0.01 -0.78 -0.15C-0.73 -0.3 -0.64 -0.43 -0.54 -0.54C-0.43 -0.64 -0.3 -0.73 -0.15 -0.78C-0.01 -0.83 0.14 -0.85 0.3 -0.84L10.04 0.08C10.28 0.1 10.5 0.21 10.67 0.38L17.36 7.06C17.71 7.41 17.91 7.89 17.91 8.4C17.91 8.9 17.71 9.38 17.36 9.73L9.73 17.36C9.38 17.71 8.9 17.91 8.4 17.91ZM2.15 9.46L8.4 15.71L15.74 8.37L9.49 2.12L1.36 1.36L2.15 9.46Z" fill="#FFC700" fill-opacity="1.000000" fill-rule="nonzero"/>
</svg>
