<svg width="16.000000" height="22.000000" viewBox="0 0 16 22" fill="none" xmlns="http://www.w3.org/2000/svg" xmlns:xlink="http://www.w3.org/1999/xlink">
	<desc>
			Created with Pixso.
	</desc>
	<defs/>
	<path id="Vector" d="M6.57 21.95C6.45 21.95 6.33 21.93 6.21 21.89C5.99 21.81 5.81 21.66 5.69 21.46C5.56 21.26 5.51 21.03 5.54 20.8L6.34 13.41L0.2 13.41C0.01 13.41 -0.17 13.36 -0.33 13.26C-0.5 13.17 -0.63 13.03 -0.72 12.86C-0.81 12.69 -0.85 12.5 -0.84 12.32C-0.83 12.13 -0.77 11.94 -0.66 11.79L7.56 -0.5C7.69 -0.7 7.88 -0.84 8.1 -0.91C8.32 -0.98 8.56 -0.98 8.78 -0.9C8.99 -0.82 9.17 -0.68 9.29 -0.49C9.41 -0.3 9.47 -0.08 9.45 0.14L8.65 7.58L14.79 7.58C14.98 7.58 15.16 7.63 15.32 7.73C15.49 7.82 15.62 7.96 15.71 8.13C15.8 8.3 15.84 8.49 15.83 8.67C15.82 8.86 15.76 9.05 15.65 9.2L7.43 21.5C7.34 21.64 7.21 21.75 7.06 21.83C6.91 21.91 6.74 21.95 6.57 21.95ZM2.15 11.33L7.5 11.33C7.64 11.33 7.78 11.36 7.92 11.42C8.05 11.48 8.17 11.56 8.27 11.67C8.36 11.78 8.44 11.91 8.48 12.05C8.53 12.19 8.54 12.34 8.53 12.48L8.06 16.81L12.84 9.66L7.5 9.66C7.35 9.66 7.2 9.63 7.07 9.57C6.93 9.51 6.81 9.43 6.71 9.32C6.62 9.21 6.54 9.08 6.5 8.94C6.45 8.8 6.44 8.65 6.45 8.51L6.92 4.18L2.15 11.33Z" fill="#149211" fill-opacity="1.000000" fill-rule="nonzero"/>
</svg>
