<svg width="1147.000000" height="59.000000" viewBox="0 0 1147 59" fill="none" xmlns="http://www.w3.org/2000/svg" xmlns:xlink="http://www.w3.org/1999/xlink">
	<desc>
			Created with Pixso.
	</desc>
	<defs/>
	<path id="Vector" d="M17.95 56.3L11.99 45.98L20.74 30.87L26.3 40.5L59.1 40.48L49.79 56.44L17.95 56.3Z" fill="#FFAD64" fill-opacity="1.000000" fill-rule="nonzero"/>
	<path id="Vector" d="M64.96 30.23L59 40.55L41.55 40.53L47.1 30.9L30.69 2.5L49.16 2.58L64.96 30.23Z" fill="#ADD4D3" fill-opacity="1.000000" fill-rule="nonzero"/>
	<path id="Vector" d="M18.87 2.45L30.79 2.45L39.5 17.57L28.38 17.57L11.99 45.99L2.83 29.95L18.87 2.45Z" fill="#FB8351" fill-opacity="1.000000" fill-rule="nonzero"/>
	<path id="Vector" d="M32.24 0.06L32.21 0L17.46 0L0 29.94L11.99 50.92L12 50.89L16.53 58.74L51.2 58.9L63.37 38.02L63.29 38.02L67.79 30.24L50.59 0.14L32.24 0.06ZM43.65 20.03L43.74 20.03L35.07 4.97L47.74 5.03L62.13 30.22L57.63 38.03L45.82 38.03L49.93 30.9L43.65 20.03ZM29.24 4.9L35.15 15.12L26.97 15.12L12.96 39.41L12 41.07L5.66 29.96L20.28 4.9L29.24 4.9ZM23.56 30.85L29.8 20.02L37.98 20.03L44.27 30.9L40.15 38.04L27.71 38.04L23.56 30.85ZM14.83 45.99L17.2 41.87L20.73 35.77L24.88 42.95L37.32 42.94L37.3 42.98L54.79 43L48.39 53.98L19.37 53.85L14.83 45.99Z" fill="#333237" fill-opacity="1.000000" fill-rule="evenodd"/>
	<path id="Vector" d="M82.07 50.37L82.07 38.89L77.82 38.89L77.82 37.6L87.93 37.6L87.93 38.89L83.69 38.89L83.69 50.37L82.07 50.37Z" fill="#FFFFFF" fill-opacity="1.000000" fill-rule="nonzero"/>
	<path id="Vector" d="M92.45 50.57C90.77 50.57 89.52 50.16 88.68 49.36C87.85 48.55 87.44 47.31 87.44 45.63C87.44 44.12 87.79 42.94 88.51 42.08C89.23 41.21 90.38 40.77 91.94 40.77C92.86 40.77 93.62 40.95 94.21 41.29C94.82 41.62 95.27 42.08 95.56 42.68C95.87 43.26 96.02 43.92 96.02 44.66L96.02 46.42L89.06 46.42C89.11 47.14 89.27 47.7 89.52 48.11C89.78 48.52 90.17 48.82 90.69 49C91.22 49.17 91.91 49.26 92.77 49.26C93.73 49.26 94.62 49.09 95.42 48.76L95.42 50.03C95.01 50.2 94.55 50.34 94.04 50.43C93.53 50.52 93.01 50.57 92.45 50.57ZM89.06 45.25L94.57 45.25L94.57 44.48C94.57 43.72 94.37 43.13 93.96 42.72C93.56 42.29 92.9 42.08 91.97 42.08C90.85 42.08 90.09 42.35 89.68 42.88C89.27 43.4 89.06 44.2 89.06 45.25Z" fill="#FFFFFF" fill-opacity="1.000000" fill-rule="nonzero"/>
	<path id="Vector" d="M102.84 50.57C101.2 50.57 99.99 50.14 99.19 49.3C98.4 48.44 98 47.23 98 45.67C98 44.02 98.45 42.79 99.35 41.98C100.25 41.18 101.46 40.77 102.98 40.77C103.6 40.77 104.12 40.82 104.53 40.91C104.94 40.99 105.33 41.12 105.72 41.31L105.72 42.6C105 42.25 104.19 42.08 103.28 42.08C102.12 42.08 101.22 42.36 100.58 42.92C99.95 43.46 99.63 44.38 99.63 45.67C99.63 46.91 99.91 47.83 100.46 48.41C101.02 48.97 101.94 49.26 103.22 49.26C104.13 49.26 104.97 49.09 105.74 48.74L105.74 50.05C105.33 50.22 104.88 50.35 104.41 50.43C103.95 50.52 103.42 50.57 102.84 50.57Z" fill="#FFFFFF" fill-opacity="1.000000" fill-rule="nonzero"/>
	<path id="Vector" d="M107.56 50.37L107.56 37.01L109.18 37.01L109.18 41.98C109.62 41.63 110.13 41.34 110.71 41.11C111.31 40.89 111.99 40.77 112.77 40.77C113.91 40.77 114.76 41.05 115.33 41.61C115.9 42.16 116.18 43.03 116.18 44.22L116.18 50.37L114.56 50.37L114.56 44.28C114.56 43.46 114.37 42.9 114 42.58C113.64 42.25 113.05 42.08 112.22 42.08C111.69 42.08 111.14 42.2 110.57 42.44C110.02 42.66 109.55 42.96 109.18 43.33L109.18 50.37L107.56 50.37Z" fill="#FFFFFF" fill-opacity="1.000000" fill-rule="nonzero"/>
	<path id="Vector" d="M122.66 50.57C121.34 50.57 120.29 50.28 119.49 49.69C118.7 49.11 118.3 48.33 118.3 47.36C118.3 46.46 118.58 45.68 119.14 45.04C119.69 44.39 120.45 43.81 121.42 43.31C120.9 42.8 120.46 42.31 120.11 41.86C119.75 41.42 119.57 40.87 119.57 40.24C119.57 39.45 119.84 38.78 120.38 38.24C120.94 37.68 121.72 37.4 122.72 37.4C123.7 37.4 124.46 37.66 125 38.18C125.54 38.69 125.82 39.38 125.82 40.24C125.82 40.95 125.62 41.55 125.24 42.04C124.86 42.53 124.31 43.03 123.6 43.53L126.89 46.88C127.11 46.39 127.22 45.77 127.22 45.02L127.22 44.74L128.51 44.74L128.51 45.02C128.51 45.53 128.45 46.03 128.33 46.52C128.22 47.01 128.04 47.44 127.82 47.79L129.6 49.6L128.61 50.49L127.02 48.92C126.56 49.49 125.96 49.91 125.22 50.17C124.48 50.43 123.63 50.57 122.66 50.57ZM122.58 42.74C123.21 42.35 123.68 41.99 123.99 41.65C124.31 41.29 124.47 40.84 124.47 40.3C124.47 39.8 124.33 39.4 124.05 39.11C123.79 38.81 123.34 38.65 122.72 38.65C122.09 38.65 121.63 38.81 121.34 39.13C121.06 39.45 120.92 39.84 120.92 40.3C120.92 40.72 121.07 41.11 121.36 41.47C121.66 41.83 122.07 42.25 122.58 42.74ZM122.66 49.4C123.43 49.4 124.08 49.29 124.63 49.06C125.18 48.82 125.65 48.47 126.03 48.01L122.41 44.3C121.55 44.7 120.91 45.13 120.48 45.59C120.07 46.04 119.87 46.62 119.87 47.32C119.87 48 120.13 48.53 120.66 48.88C121.19 49.23 121.86 49.4 122.66 49.4Z" fill="#FB8351" fill-opacity="1.000000" fill-rule="nonzero"/>
	<path id="Vector" d="M78.46 28.34L78.46 10.66L83.62 10.66L83.62 24.38L91.58 24.38L91.58 28.34L78.46 28.34Z" fill="#FB8351" fill-opacity="1.000000" fill-rule="nonzero"/>
	<path id="Vector" d="M99.89 28.61C97.29 28.61 95.37 28.03 94.12 26.88C92.9 25.73 92.28 24.05 92.28 21.83C92.28 19.64 92.9 17.96 94.15 16.81C95.39 15.64 97.31 15.05 99.89 15.05C102.48 15.05 104.41 15.64 105.65 16.81C106.91 17.96 107.54 19.64 107.54 21.83C107.54 24.05 106.92 25.73 105.68 26.88C104.43 28.03 102.5 28.61 99.89 28.61ZM99.89 24.85C100.73 24.85 101.33 24.61 101.7 24.14C102.08 23.66 102.27 22.89 102.27 21.83C102.27 20.79 102.08 20.03 101.7 19.55C101.33 19.06 100.73 18.81 99.89 18.81C99.06 18.81 98.47 19.06 98.1 19.55C97.74 20.03 97.55 20.79 97.55 21.83C97.55 22.89 97.74 23.66 98.1 24.14C98.47 24.61 99.06 24.85 99.89 24.85Z" fill="#FB8351" fill-opacity="1.000000" fill-rule="nonzero"/>
	<path id="Vector" d="M115.19 33.17C114.55 33.17 113.85 33.14 113.1 33.08C112.35 33.05 111.64 32.97 110.96 32.87C110.3 32.76 109.75 32.63 109.31 32.48L109.31 29.19C109.81 29.35 110.37 29.49 111.01 29.6C111.67 29.71 112.34 29.79 113.02 29.85C113.69 29.9 114.32 29.93 114.88 29.93C115.85 29.93 116.61 29.87 117.16 29.76C117.73 29.67 118.01 29.5 118.01 29.24C118.01 29.02 117.92 28.88 117.74 28.8C117.56 28.75 117.21 28.72 116.7 28.72L113.26 28.72C111.93 28.72 110.9 28.51 110.16 28.09C109.45 27.65 109.09 27 109.09 26.14C109.09 24.93 109.76 24.09 111.1 23.62C110.35 23.23 109.8 22.75 109.45 22.16C109.1 21.58 108.93 20.83 108.93 19.94C108.93 18.25 109.5 17.02 110.63 16.23C111.78 15.45 113.44 15.05 115.6 15.05C116.06 15.05 116.57 15.09 117.13 15.16C117.7 15.22 118.11 15.27 118.37 15.33L123.48 15.33L123.37 18.46L121.64 18.46C121.97 18.88 122.13 19.39 122.13 19.99C122.13 21.33 121.74 22.39 120.95 23.18C120.18 23.94 118.96 24.33 117.3 24.33C117.06 24.33 116.81 24.32 116.53 24.3C116.26 24.26 116 24.24 115.76 24.22C115.36 24.26 115.01 24.33 114.72 24.44C114.43 24.55 114.28 24.73 114.28 24.99C114.28 25.17 114.36 25.3 114.53 25.37C114.69 25.43 114.92 25.45 115.21 25.45L118.21 25.45C119.54 25.45 120.59 25.77 121.36 26.39C122.13 27.01 122.51 27.92 122.51 29.13C122.51 30.41 121.92 31.4 120.73 32.1C119.54 32.81 117.69 33.17 115.19 33.17ZM115.63 21.5C116.43 21.5 116.99 21.36 117.3 21.09C117.61 20.82 117.77 20.36 117.77 19.72C117.77 19.08 117.61 18.61 117.3 18.32C116.99 18.03 116.43 17.88 115.63 17.88C114.88 17.88 114.33 18.03 113.98 18.32C113.65 18.59 113.48 19.06 113.48 19.72C113.48 20.34 113.64 20.8 113.95 21.09C114.28 21.36 114.84 21.5 115.63 21.5Z" fill="#FB8351" fill-opacity="1.000000" fill-rule="nonzero"/>
	<path id="Vector" d="M131.89 28.61C129.29 28.61 127.37 28.03 126.13 26.88C124.9 25.73 124.29 24.05 124.29 21.83C124.29 19.64 124.91 17.96 126.15 16.81C127.4 15.64 129.31 15.05 131.89 15.05C134.49 15.05 136.41 15.64 137.65 16.81C138.92 17.96 139.55 19.64 139.55 21.83C139.55 24.05 138.92 25.73 137.68 26.88C136.44 28.03 134.51 28.61 131.89 28.61ZM131.89 24.85C132.73 24.85 133.34 24.61 133.7 24.14C134.09 23.66 134.28 22.89 134.28 21.83C134.28 20.79 134.09 20.03 133.7 19.55C133.34 19.06 132.73 18.81 131.89 18.81C131.07 18.81 130.47 19.06 130.11 19.55C129.74 20.03 129.56 20.79 129.56 21.83C129.56 22.89 129.74 23.66 130.11 24.14C130.47 24.61 131.07 24.85 131.89 24.85Z" fill="#FB8351" fill-opacity="1.000000" fill-rule="nonzero"/>
	<path id="Vector" d="M141.82 13.6L141.82 9.86L147.39 9.86L147.39 13.6L141.82 13.6ZM142.23 28.34L142.23 19.09L140.33 19.09L140.77 15.33L147.39 15.33L147.39 28.34L142.23 28.34Z" fill="#FFFFFF" fill-opacity="1.000000" fill-rule="nonzero"/>
	<path id="Vector" d="M149.86 34.26L149.86 15.33L154.34 15.33L154.58 16.37C155.11 15.95 155.69 15.63 156.31 15.41C156.95 15.17 157.69 15.05 158.54 15.05C160.48 15.05 161.97 15.55 163.01 16.53C164.07 17.5 164.6 19.16 164.6 21.5C164.6 23.83 164.04 25.59 162.93 26.8C161.81 28.01 160.27 28.61 158.32 28.61C157.02 28.61 155.92 28.36 155.02 27.87L155.02 34.26L149.86 34.26ZM157 24.85C157.75 24.85 158.33 24.59 158.73 24.05C159.13 23.52 159.33 22.7 159.33 21.58C159.33 20.5 159.14 19.77 158.75 19.39C158.39 19 157.82 18.81 157.05 18.81C156.28 18.81 155.61 19.07 155.02 19.58L155.02 24.19C155.32 24.41 155.61 24.58 155.9 24.69C156.19 24.8 156.56 24.85 157 24.85Z" fill="#FFFFFF" fill-opacity="1.000000" fill-rule="nonzero"/>
	<path id="Vector" d="M171.48 28.61C170.36 28.61 169.31 28.53 168.32 28.36C167.35 28.22 166.58 28.03 166.02 27.79L166.02 24.08C166.66 24.37 167.42 24.6 168.29 24.77C169.19 24.93 169.95 25.02 170.57 25.02C171.23 25.02 171.73 25 172.05 24.96C172.4 24.92 172.58 24.77 172.58 24.49C172.58 24.18 172.27 23.94 171.67 23.78C171.07 23.62 170.31 23.38 169.39 23.07C168.2 22.65 167.31 22.15 166.73 21.58C166.14 21.02 165.85 20.19 165.85 19.11C165.85 17.81 166.36 16.82 167.39 16.12C168.41 15.41 170.02 15.05 172.22 15.05C173.06 15.05 173.93 15.12 174.83 15.24C175.72 15.37 176.43 15.52 176.94 15.68L176.94 19.31C176.39 19.07 175.79 18.89 175.13 18.78C174.49 18.67 173.9 18.62 173.37 18.62C172.79 18.62 172.26 18.65 171.81 18.7C171.35 18.76 171.12 18.91 171.12 19.17C171.12 19.46 171.38 19.67 171.89 19.8C172.42 19.93 173.13 20.13 174 20.4C174.99 20.7 175.76 21.02 176.31 21.36C176.88 21.71 177.27 22.13 177.49 22.63C177.73 23.12 177.85 23.73 177.85 24.47C177.85 25.78 177.31 26.81 176.23 27.54C175.16 28.25 173.58 28.61 171.48 28.61Z" fill="#FFFFFF" fill-opacity="1.000000" fill-rule="nonzero"/>
	<path id="Vector" d="M184.5 28.61C182.98 28.61 181.79 28.18 180.93 27.32C180.07 26.46 179.64 25.2 179.64 23.53L179.64 15.33L184.8 15.33L184.8 23.12C184.8 24.26 185.38 24.82 186.53 24.82C186.95 24.82 187.36 24.73 187.76 24.55C188.17 24.37 188.49 24.14 188.72 23.86L188.72 15.33L193.88 15.33L193.88 28.34L189.05 28.34L188.92 27.35C188.4 27.71 187.77 28.02 187.02 28.25C186.29 28.49 185.45 28.61 184.5 28.61Z" fill="#FFFFFF" fill-opacity="1.000000" fill-rule="nonzero"/>
	<path id="Vector" d="M196.34 28.34L196.34 15.33L201.12 15.33L201.25 16.37C201.82 15.98 202.45 15.67 203.15 15.44C203.86 15.18 204.64 15.05 205.48 15.05C206.32 15.05 206.98 15.17 207.46 15.41C207.93 15.65 208.32 15.99 208.61 16.45C209.19 16.03 209.85 15.69 210.59 15.44C211.34 15.18 212.21 15.05 213.22 15.05C214.74 15.05 215.86 15.45 216.57 16.26C217.28 17.05 217.64 18.25 217.64 19.88L217.64 28.34L212.56 28.34L212.56 20.49C212.56 19.9 212.44 19.49 212.2 19.25C211.97 18.99 211.57 18.87 211.02 18.87C210.31 18.87 209.73 19.12 209.27 19.64C209.3 19.87 209.32 20.1 209.32 20.32C209.32 20.52 209.32 20.75 209.32 21.01L209.32 28.34L204.55 28.34L204.55 20.4C204.55 19.87 204.46 19.49 204.27 19.25C204.09 18.99 203.74 18.87 203.23 18.87C202.88 18.87 202.54 18.96 202.21 19.14C201.88 19.32 201.59 19.54 201.34 19.8L201.34 28.34L196.34 28.34Z" fill="#FFFFFF" fill-opacity="1.000000" fill-rule="nonzero"/>
	<path id="Vector" d="M138.01 50.73C136.63 50.73 135.49 50.47 134.58 49.96C133.68 49.43 133 48.7 132.56 47.76C132.11 46.81 131.88 45.7 131.88 44.43C131.88 43.04 132.09 41.83 132.52 40.8C132.94 39.77 133.6 38.98 134.5 38.42C135.4 37.85 136.56 37.57 137.99 37.57C138.73 37.57 139.39 37.62 139.99 37.73C140.6 37.83 141.16 37.98 141.69 38.16L141.69 39.59C141.16 39.39 140.6 39.24 140.01 39.13C139.41 39.02 138.79 38.96 138.13 38.96C136.98 38.96 136.06 39.17 135.39 39.61C134.72 40.05 134.23 40.67 133.94 41.49C133.65 42.31 133.51 43.29 133.51 44.43C133.51 46 133.88 47.22 134.62 48.07C135.37 48.92 136.55 49.34 138.16 49.34C138.76 49.34 139.36 49.3 139.97 49.2C140.59 49.11 141.16 48.97 141.69 48.77L141.69 50.22C141.18 50.37 140.62 50.5 140.01 50.59C139.41 50.68 138.75 50.73 138.01 50.73Z" fill="#FFFFFF" fill-opacity="1.000000" fill-rule="nonzero"/>
	<path id="Vector" d="M148.37 50.73C146.73 50.73 145.53 50.31 144.78 49.48C144.04 48.64 143.67 47.42 143.67 45.83C143.67 44.26 144.05 43.05 144.8 42.21C145.55 41.36 146.74 40.94 148.37 40.94C149.99 40.94 151.18 41.36 151.94 42.21C152.69 43.05 153.07 44.26 153.07 45.83C153.07 47.42 152.7 48.64 151.96 49.48C151.22 50.31 150.02 50.73 148.37 50.73ZM148.37 49.34C149.49 49.34 150.28 49.07 150.75 48.51C151.21 47.94 151.44 47.05 151.44 45.83C151.44 44.62 151.2 43.73 150.73 43.18C150.27 42.61 149.48 42.33 148.37 42.33C147.26 42.33 146.47 42.61 145.99 43.18C145.53 43.73 145.3 44.62 145.3 45.83C145.3 47.05 145.53 47.94 145.99 48.51C146.45 49.07 147.25 49.34 148.37 49.34Z" fill="#FFFFFF" fill-opacity="1.000000" fill-rule="nonzero"/>
	<path id="Vector" d="M155.05 50.53L155.05 49.16L156.52 49.16L156.52 50.53L155.05 50.53Z" fill="#FFFFFF" fill-opacity="1.000000" fill-rule="nonzero"/>
	<path id="Vector" d="M394.23 6.43C396.28 4.38 399.61 4.38 401.67 6.43C403.72 8.48 403.72 11.81 401.67 13.86L389.15 26.38C385.56 21.56 385.95 14.71 390.32 10.34L394.23 6.43Z" fill="#4F9E91" fill-opacity="1.000000" fill-rule="evenodd"/>
	<path id="Vector" d="M412.12 34.67C414.18 36.72 414.18 40.05 412.12 42.1C410.07 44.15 406.74 44.15 404.69 42.1L392.17 29.59C396.99 25.99 403.84 26.38 408.21 30.76L412.12 34.67Z" fill="#EBE1C5" fill-opacity="1.000000" fill-rule="evenodd"/>
	<path id="Vector" d="M383.89 52.56C381.83 54.61 378.5 54.61 376.45 52.56C374.4 50.51 374.4 47.18 376.45 45.13L388.97 32.61C392.56 37.43 392.17 44.28 387.8 48.65L383.89 52.56Z" fill="#EBCC6E" fill-opacity="1.000000" fill-rule="evenodd"/>
	<path id="Vector" d="M365.99 24.32C363.94 22.27 363.94 18.94 365.99 16.89C368.05 14.83 371.38 14.83 373.43 16.89L385.94 29.4C381.13 33 374.28 32.61 369.9 28.23L365.99 24.32Z" fill="#ED834E" fill-opacity="1.000000" fill-rule="evenodd"/>
	<path id="Vector" d="M391.43 51.03C394.46 47.66 395.87 43.35 395.65 39.11L401.67 45.13C401.68 45.14 401.7 45.16 401.71 45.17L401.71 49.46C401.71 52.36 399.36 54.72 396.45 54.72C394.1 54.72 392.1 53.17 391.43 51.03Z" fill="#ED834E" fill-opacity="1.000000" fill-rule="evenodd"/>
	<path id="Vector" d="M367.53 31.87C370.89 34.9 375.2 36.3 379.44 36.09L373.43 42.1C373.41 42.12 373.4 42.13 373.38 42.15L369.09 42.15C366.19 42.15 363.84 39.79 363.84 36.89C363.84 34.53 365.39 32.54 367.53 31.87Z" fill="#4F9E91" fill-opacity="1.000000" fill-rule="evenodd"/>
	<path id="Vector" d="M410.59 27.12C407.23 24.09 402.92 22.69 398.68 22.9L404.69 16.89C404.7 16.87 404.72 16.86 404.73 16.84L409.03 16.84C411.93 16.84 414.28 19.2 414.28 22.1C414.28 24.46 412.73 26.45 410.59 27.12Z" fill="#EBCC6E" fill-opacity="1.000000" fill-rule="evenodd"/>
	<path id="Vector" d="M386.68 7.96C383.66 11.33 382.25 15.63 382.46 19.87L376.45 13.86C376.44 13.85 376.42 13.83 376.41 13.82L376.41 9.53C376.41 6.63 378.76 4.27 381.66 4.27C384.02 4.27 386.02 5.82 386.68 7.96Z" fill="#EBE1C5" fill-opacity="1.000000" fill-rule="evenodd"/>
	<path id="Vector" d="M381.66 0C376.4 0 372.13 4.26 372.13 9.53L372.13 11.38C368.96 10.56 365.45 11.38 362.97 13.86C359.25 17.59 359.25 23.62 362.97 27.35L364.28 28.66C361.46 30.31 359.56 33.38 359.56 36.89C359.56 42.16 363.83 46.42 369.09 46.42L370.95 46.42C370.12 49.59 370.95 53.1 373.43 55.58C377.15 59.31 383.19 59.31 386.91 55.58L390.82 51.67C394.27 48.22 395.88 43.63 395.65 39.11L401.67 45.13C405.39 48.85 411.42 48.85 415.15 45.13C418.87 41.4 418.87 35.37 415.15 31.64L413.84 30.33C416.66 28.68 418.56 25.61 418.56 22.1C418.56 16.84 414.29 12.57 409.03 12.57L407.17 12.57C408 9.4 407.17 5.89 404.69 3.41C400.97 -0.32 394.93 -0.32 391.21 3.41L387.3 7.32C383.85 10.77 382.24 15.36 382.46 19.88L376.45 13.86C376.44 13.85 376.42 13.83 376.41 13.82L376.41 9.53C376.41 6.63 378.76 4.27 381.66 4.27C384.02 4.27 386.02 5.82 386.68 7.96C386.88 7.74 387.09 7.53 387.3 7.32L389.9 4.72C388.24 1.89 385.17 0 381.66 0ZM404.73 16.84C404.72 16.86 404.7 16.87 404.69 16.89L398.68 22.9C402.92 22.69 407.23 24.09 410.59 27.12C412.73 26.45 414.28 24.46 414.28 22.1C414.28 19.2 411.93 16.84 409.03 16.84L404.73 16.84ZM373.38 42.15C373.4 42.13 373.41 42.12 373.43 42.1L379.44 36.09C375.2 36.3 370.89 34.9 367.53 31.87C365.39 32.54 363.84 34.53 363.84 36.89C363.84 39.79 366.19 42.15 369.09 42.15L373.38 42.15ZM367.36 31.72C367.2 31.57 367.04 31.42 366.88 31.26L366.88 31.26C367.04 31.42 367.2 31.57 367.36 31.72ZM396.45 59C392.94 59 389.88 57.1 388.22 54.27L390.82 51.67C391.03 51.46 391.24 51.25 391.43 51.03C392.1 53.17 394.1 54.72 396.45 54.72C399.36 54.72 401.71 52.36 401.71 49.46L401.71 45.17C402.94 46.39 404.42 47.2 405.99 47.61L405.99 49.46C405.99 54.73 401.72 59 396.45 59ZM401.67 6.43C399.61 4.38 396.28 4.38 394.23 6.43L390.32 10.34C385.95 14.72 385.56 21.56 389.15 26.38L401.67 13.86C403.72 11.81 403.72 8.48 401.67 6.43ZM412.12 42.1C414.18 40.05 414.18 36.72 412.12 34.67L408.21 30.76C403.84 26.38 396.99 25.99 392.17 29.59L404.69 42.1C406.74 44.15 410.07 44.15 412.12 42.1ZM383.89 52.56C381.83 54.61 378.51 54.61 376.45 52.56C374.4 50.51 374.4 47.18 376.45 45.13L388.97 32.61C392.56 37.43 392.17 44.27 387.8 48.65L383.89 52.56ZM365.99 16.89C363.94 18.94 363.94 22.27 365.99 24.32L369.9 28.23C374.28 32.61 381.13 33 385.94 29.4L373.43 16.89C371.38 14.84 368.05 14.84 365.99 16.89Z" fill="#3D3A2C" fill-opacity="1.000000" fill-rule="evenodd"/>
	<path id="Vector" d="M289 19.27L293.67 19.27L293.67 33.8L301.7 33.8L301.7 37.74L289 37.74L289 19.27Z" fill="#FFFFFF" fill-opacity="1.000000" fill-rule="nonzero"/>
	<path id="Vector" d="M310.19 38.13C308.62 38.13 307.25 37.85 306.07 37.29C304.89 36.71 303.97 35.91 303.32 34.91C302.69 33.89 302.37 32.72 302.37 31.4C302.37 30.08 302.69 28.91 303.32 27.91C303.97 26.89 304.89 26.1 306.07 25.53C307.25 24.95 308.62 24.66 310.19 24.66C311.76 24.66 313.13 24.95 314.31 25.53C315.49 26.1 316.4 26.89 317.03 27.91C317.68 28.91 318.01 30.08 318.01 31.4C318.01 32.72 317.68 33.89 317.03 34.91C316.4 35.91 315.49 36.71 314.31 37.29C313.13 37.85 311.76 38.13 310.19 38.13ZM310.19 34.51C311.12 34.51 311.86 34.24 312.41 33.7C312.97 33.13 313.25 32.37 313.25 31.4C313.25 30.43 312.97 29.67 312.41 29.13C311.86 28.56 311.12 28.28 310.19 28.28C309.26 28.28 308.51 28.56 307.94 29.13C307.4 29.67 307.13 30.43 307.13 31.4C307.13 32.37 307.4 33.13 307.94 33.7C308.51 34.24 309.26 34.51 310.19 34.51Z" fill="#FFFFFF" fill-opacity="1.000000" fill-rule="nonzero"/>
	<path id="Vector" d="M326.74 43.81C325.89 43.81 325.04 43.73 324.18 43.57C323.33 43.42 322.6 43.2 321.99 42.94L321.99 39.72C323.38 40.32 324.96 40.62 326.74 40.62C328.03 40.62 328.95 40.35 329.51 39.82C330.09 39.29 330.38 38.52 330.38 37.5L330.38 36.73C329.87 37.17 329.24 37.52 328.48 37.76C327.74 38.01 326.95 38.13 326.1 38.13C324.77 38.13 323.59 37.85 322.57 37.29C321.54 36.72 320.74 35.93 320.16 34.91C319.6 33.89 319.32 32.72 319.32 31.4C319.32 30.06 319.6 28.88 320.16 27.86C320.73 26.84 321.52 26.05 322.54 25.51C323.56 24.94 324.73 24.66 326.05 24.66C327.87 24.66 329.36 25.22 330.54 26.33L330.54 25.06L335.03 25.06L335.03 36.86C335.03 39.07 334.36 40.77 333 41.99C331.66 43.2 329.57 43.81 326.74 43.81ZM327.27 34.54C327.99 34.54 328.63 34.36 329.2 33.99C329.76 33.62 330.16 33.12 330.38 32.51L330.38 30.29C330.14 29.67 329.73 29.19 329.17 28.83C328.61 28.47 327.97 28.28 327.27 28.28C326.32 28.28 325.55 28.56 324.97 29.13C324.39 29.67 324.1 30.42 324.1 31.37C324.1 32.34 324.39 33.11 324.97 33.7C325.55 34.26 326.32 34.54 327.27 34.54Z" fill="#FFFFFF" fill-opacity="1.000000" fill-rule="nonzero"/>
	<path id="Vector" d="M344.03 38.13C342.46 38.13 341.09 37.85 339.91 37.29C338.73 36.71 337.82 35.91 337.16 34.91C336.53 33.89 336.21 32.72 336.21 31.4C336.21 30.08 336.53 28.91 337.16 27.91C337.82 26.89 338.73 26.1 339.91 25.53C341.09 24.95 342.46 24.66 344.03 24.66C345.6 24.66 346.97 24.95 348.15 25.53C349.33 26.1 350.24 26.89 350.87 27.91C351.52 28.91 351.85 30.08 351.85 31.4C351.85 32.72 351.52 33.89 350.87 34.91C350.24 35.91 349.33 36.71 348.15 37.29C346.97 37.85 345.6 38.13 344.03 38.13ZM344.03 34.51C344.96 34.51 345.7 34.24 346.25 33.7C346.81 33.13 347.1 32.37 347.1 31.4C347.1 30.43 346.81 29.67 346.25 29.13C345.7 28.56 344.96 28.28 344.03 28.28C343.1 28.28 342.35 28.56 341.79 29.13C341.24 29.67 340.97 30.43 340.97 31.4C340.97 32.37 341.24 33.13 341.79 33.7C342.35 34.24 343.1 34.51 344.03 34.51Z" fill="#FFFFFF" fill-opacity="1.000000" fill-rule="nonzero"/>
	<path id="Vector" d="M426.41 19.27L431.09 19.27L431.09 37.74L426.41 37.74L426.41 19.27Z" fill="#FFFFFF" fill-opacity="1.000000" fill-rule="nonzero"/>
	<path id="Vector" d="M433.46 25.06L437.95 25.06L437.95 26.33C439.13 25.22 440.62 24.66 442.44 24.66C443.76 24.66 444.93 24.94 445.95 25.51C446.97 26.05 447.76 26.84 448.33 27.86C448.89 28.86 449.17 30.03 449.17 31.37C449.17 32.69 448.89 33.87 448.33 34.91C447.76 35.93 446.97 36.72 445.95 37.29C444.95 37.85 443.78 38.13 442.44 38.13C441.59 38.13 440.78 38 440.01 37.74C439.25 37.49 438.62 37.15 438.11 36.71L438.11 43.52L433.46 43.52L433.46 25.06ZM441.22 34.51C442.17 34.51 442.94 34.23 443.52 33.67C444.1 33.11 444.39 32.34 444.39 31.37C444.39 30.4 444.1 29.65 443.52 29.1C442.94 28.54 442.17 28.25 441.22 28.25C440.52 28.25 439.88 28.44 439.32 28.81C438.76 29.16 438.35 29.65 438.11 30.26L438.11 32.51C438.35 33.12 438.76 33.62 439.32 33.99C439.88 34.34 440.52 34.51 441.22 34.51Z" fill="#FFFFFF" fill-opacity="1.000000" fill-rule="nonzero"/>
	<path id="Vector" d="M456.1 38.13C455.08 38.13 454.02 38.03 452.91 37.82C451.8 37.62 450.92 37.34 450.27 36.97L450.27 33.56C450.99 33.99 451.85 34.34 452.85 34.62C453.88 34.88 454.81 35.02 455.65 35.02C456.27 35.02 456.72 34.97 457 34.88C457.28 34.8 457.42 34.62 457.42 34.36C457.42 34.14 457.33 33.98 457.13 33.85C456.96 33.71 456.62 33.57 456.13 33.43C455.65 33.27 455.1 33.11 454.47 32.93C453.39 32.61 452.55 32.29 451.93 31.95C451.31 31.62 450.86 31.19 450.56 30.68C450.26 30.17 450.11 29.53 450.11 28.76C450.11 27.38 450.64 26.36 451.72 25.69C452.81 25 454.3 24.66 456.18 24.66C457.1 24.66 458.06 24.76 459.06 24.95C460.08 25.15 460.85 25.4 461.36 25.72L461.36 29.07C460.83 28.72 460.13 28.43 459.25 28.2C458.38 27.97 457.57 27.86 456.82 27.86C456.22 27.86 455.75 27.92 455.42 28.04C455.08 28.15 454.91 28.34 454.91 28.62C454.91 28.89 455.08 29.09 455.42 29.23C455.75 29.37 456.35 29.55 457.21 29.76C457.78 29.9 458.01 29.96 457.93 29.94C459.05 30.24 459.92 30.58 460.54 30.95C461.16 31.32 461.59 31.76 461.83 32.27C462.1 32.76 462.23 33.4 462.23 34.17C462.23 35.39 461.7 36.35 460.65 37.08C459.61 37.78 458.09 38.13 456.1 38.13Z" fill="#FFFFFF" fill-opacity="1.000000" fill-rule="nonzero"/>
	<path id="Vector" d="M469.17 38.13C467.43 38.13 466.12 37.65 465.24 36.68C464.37 35.71 463.94 34.43 463.94 32.85L463.94 25.06L468.59 25.06L468.59 32.32C468.59 33.78 469.25 34.51 470.57 34.51C471.17 34.51 471.72 34.37 472.21 34.09C472.7 33.81 473.11 33.4 473.42 32.85L473.42 25.06L478.07 25.06L478.07 37.74L473.58 37.74L473.58 36.36C473.04 36.94 472.38 37.38 471.6 37.68C470.83 37.98 470.02 38.13 469.17 38.13Z" fill="#FFFFFF" fill-opacity="1.000000" fill-rule="nonzero"/>
	<path id="Vector" d="M480.45 25.06L484.76 25.06L484.76 26.43C485.29 25.87 485.9 25.44 486.58 25.14C487.27 24.82 488 24.66 488.77 24.66C489.73 24.66 490.48 24.8 491.05 25.08C491.63 25.37 492.09 25.79 492.45 26.35C492.97 25.82 493.62 25.41 494.37 25.11C495.13 24.81 495.9 24.66 496.67 24.66C498.34 24.66 499.53 25.09 500.24 25.96C500.94 26.8 501.29 28.02 501.29 29.63L501.29 37.74L496.86 37.74L496.86 30.29C496.86 29.58 496.73 29.07 496.46 28.76C496.2 28.44 495.76 28.28 495.14 28.28C494.35 28.28 493.7 28.56 493.21 29.13C493.23 29.42 493.24 29.88 493.24 30.5L493.24 37.74L488.8 37.74L488.8 30.1C488.8 29.45 488.69 28.98 488.46 28.7C488.23 28.42 487.82 28.28 487.24 28.28C486.34 28.28 485.57 28.78 484.92 29.79L484.92 37.74L480.45 37.74L480.45 25.06Z" fill="#FFFFFF" fill-opacity="1.000000" fill-rule="nonzero"/>
	<path id="Vector" d="M602.5 0C598.62 0 594.78 0.76 591.21 2.24C587.63 3.72 584.38 5.9 581.64 8.64C578.9 11.37 576.72 14.63 575.24 18.21C573.76 21.78 573 25.62 573 29.5C573 33.37 573.76 37.21 575.24 40.78C576.72 44.36 578.9 47.62 581.64 50.35C584.38 53.09 587.63 55.27 591.21 56.75C594.78 58.23 598.62 59 602.5 59L602.5 44.25C600.56 44.25 598.64 43.86 596.85 43.12C595.06 42.38 593.44 41.29 592.07 39.92C590.7 38.56 589.61 36.93 588.87 35.14C588.13 33.35 587.75 31.43 587.75 29.5C587.75 27.56 588.13 25.64 588.87 23.85C589.61 22.06 590.7 20.43 592.07 19.07C593.44 17.7 595.06 16.61 596.85 15.87C598.64 15.13 600.56 14.75 602.5 14.75L602.5 0Z" fill="#0F52FF" fill-opacity="1.000000" fill-rule="nonzero"/>
	<path id="Vector" d="M612.33 29.5C612.33 34.93 607.93 39.33 602.5 39.33C597.06 39.33 592.66 34.93 592.66 29.5C592.66 24.06 597.06 19.66 602.5 19.66C607.93 19.66 612.33 24.06 612.33 29.5Z" fill="#0F52FF" fill-opacity="1.000000" fill-rule="evenodd"/>
	<path id="Vector" d="M573 29.5C573 33.37 573.76 37.21 575.24 40.78C576.72 44.36 578.9 47.62 581.64 50.35C584.38 53.09 587.63 55.27 591.21 56.75C594.78 58.23 598.62 59 602.5 59C606.37 59 610.21 58.23 613.78 56.75C617.36 55.27 620.62 53.09 623.36 50.35C626.09 47.62 628.27 44.36 629.75 40.78C631.23 37.21 632 33.37 632 29.5L617.25 29.5C617.25 31.43 616.86 33.35 616.12 35.14C615.38 36.93 614.29 38.56 612.93 39.92C611.56 41.29 609.93 42.38 608.14 43.12C606.35 43.86 604.43 44.25 602.5 44.25C600.56 44.25 598.64 43.86 596.85 43.12C595.06 42.38 593.44 41.29 592.07 39.92C590.7 38.56 589.61 36.93 588.87 35.14C588.13 33.35 587.75 31.43 587.75 29.5L573 29.5Z" fill="#5BD0F4" fill-opacity="1.000000" fill-rule="nonzero"/>
	<path id="Vector" d="M612.33 29.5C612.33 26.89 611.29 24.39 609.45 22.54C607.6 20.7 605.1 19.66 602.5 19.66C599.89 19.66 597.39 20.7 595.54 22.54C593.7 24.39 592.66 26.89 592.66 29.5L602.5 29.5L612.33 29.5Z" fill="#5BD0F4" fill-opacity="1.000000" fill-rule="nonzero"/>
	<path id="Vector" d="M647.4 18.41L643.74 18.41L643.74 38.77L647.4 38.77L647.4 18.41Z" fill="#0F52FF" fill-opacity="1.000000" fill-rule="nonzero"/>
	<path id="Vector" d="M649.79 31.56C649.79 36.27 653.05 39.17 657.36 39.17C661.66 39.17 664.92 36.27 664.92 31.56C664.92 26.84 661.66 23.94 657.36 23.94C653.05 23.94 649.79 26.84 649.79 31.56ZM653.46 31.56C653.46 28.76 655.09 27.14 657.36 27.14C659.62 27.14 661.25 28.76 661.25 31.56C661.25 34.35 659.62 35.98 657.36 35.98C655.09 35.98 653.46 34.35 653.46 31.56Z" fill="#0F52FF" fill-opacity="1.000000" fill-rule="nonzero"/>
	<path id="Vector" d="M678.01 24.34L678.01 26.29L677.72 26.29C676.85 25.04 675.45 23.94 672.95 23.94C669.52 23.94 666.44 26.84 666.44 31.32C666.44 35.8 669.52 38.71 672.95 38.71C675.45 38.71 676.85 37.57 677.66 36.44L677.95 36.44L677.95 37.84C677.95 40.63 676.32 41.91 673.94 41.91C671.55 41.91 670.33 40.63 669.84 38.97L666.55 40.4C667.31 42.58 669.52 44.99 674 44.99C678.59 44.99 681.61 42.58 681.61 37.92L681.61 24.34L678.01 24.34ZM674.05 35.57C671.79 35.57 670.1 33.94 670.1 31.32C670.1 28.71 671.79 27.08 674.05 27.08C676.32 27.08 678.01 28.71 678.01 31.32C678.01 33.94 676.32 35.57 674.05 35.57Z" fill="#0F52FF" fill-opacity="1.000000" fill-rule="nonzero"/>
	<path id="Vector" d="M683.98 31.56C683.98 36.27 687.24 39.17 691.55 39.17C695.85 39.17 699.11 36.27 699.11 31.56C699.11 26.84 695.85 23.94 691.55 23.94C687.24 23.94 683.98 26.84 683.98 31.56ZM687.65 31.56C687.65 28.76 689.28 27.14 691.55 27.14C693.81 27.14 695.44 28.76 695.44 31.56C695.44 34.35 693.81 35.98 691.55 35.98C689.28 35.98 687.65 34.35 687.65 31.56Z" fill="#0F52FF" fill-opacity="1.000000" fill-rule="nonzero"/>
	<path id="Vector" d="M701.98 20.16C701.98 21.64 703.12 22.66 704.57 22.66C706.02 22.66 707.16 21.64 707.16 20.16C707.16 18.67 706.02 17.66 704.57 17.66C703.12 17.66 701.98 18.67 701.98 20.16ZM706.4 24.34L702.74 24.34L702.74 38.77L706.4 38.77L706.4 24.34Z" fill="#5BD0F4" fill-opacity="1.000000" fill-rule="nonzero"/>
	<path id="Vector" d="M709.67 44.58L713.33 44.58L713.33 36.91L713.62 36.91C714.44 38.07 715.83 39.17 718.33 39.17C721.76 39.17 724.85 36.27 724.85 31.56C724.85 26.84 721.76 23.94 718.33 23.94C715.83 23.94 714.44 25.04 713.56 26.29L713.27 26.29L713.27 24.34L709.67 24.34L709.67 44.58ZM717.23 36.03C714.96 36.03 713.27 34.41 713.27 31.56C713.27 28.71 714.96 27.08 717.23 27.08C719.5 27.08 721.18 28.71 721.18 31.56C721.18 34.41 719.5 36.03 717.23 36.03Z" fill="#5BD0F4" fill-opacity="1.000000" fill-rule="nonzero"/>
	<path id="Vector" d="M726.98 28.39C726.98 31.24 729.37 32.28 732.39 32.86L733.15 33.01C734.95 33.36 735.77 33.79 735.77 34.73C735.77 35.66 734.95 36.38 733.27 36.38C731.58 36.38 730.21 35.68 729.83 33.59L726.46 34.46C726.96 37.49 729.48 39.17 733.27 39.17C736.93 39.17 739.31 37.46 739.31 34.43C739.31 31.41 736.87 30.6 733.61 29.96L732.86 29.81C731.35 29.52 730.53 29.11 730.53 28.15C730.53 27.28 731.29 26.73 732.68 26.73C734.08 26.73 735.07 27.31 735.42 28.88L738.73 27.86C738.03 25.54 735.91 23.94 732.68 23.94C729.25 23.94 726.98 25.54 726.98 28.39Z" fill="#5BD0F4" fill-opacity="1.000000" fill-rule="nonzero"/>
	<path id="Vector" d="M755.77 38.77L755.77 24.34L752.11 24.34L752.11 31.79C752.11 34.46 750.8 36.03 748.56 36.03C746.58 36.03 745.48 34.96 745.48 32.78L745.48 24.34L741.81 24.34L741.81 32.95C741.81 36.53 744.05 39 747.43 39C750.07 39 751.29 37.84 751.87 36.61L752.16 36.61L752.16 38.77L755.77 38.77Z" fill="#5BD0F4" fill-opacity="1.000000" fill-rule="nonzero"/>
	<path id="Vector" d="M759.02 24.34L759.02 38.77L762.69 38.77L762.69 30.16C762.69 28.18 763.62 27.08 765.3 27.08C766.76 27.08 767.63 27.89 767.63 29.46L767.63 38.77L771.29 38.77L771.29 30.16C771.29 28.18 772.22 27.08 773.91 27.08C775.36 27.08 776.24 27.89 776.24 29.46L776.24 38.77L779.9 38.77L779.9 29.29C779.9 25.8 777.75 24.11 775.07 24.11C772.72 24.11 771.64 25.16 770.94 26.38L770.65 26.38C769.98 25.01 768.79 24.11 766.7 24.11C764.6 24.11 763.47 25.04 762.92 26.15L762.63 26.15L762.63 24.34L759.02 24.34Z" fill="#5BD0F4" fill-opacity="1.000000" fill-rule="nonzero"/>
	<path id="Vector" d="M893.81 48.83L854.33 21.59C850.33 18.83 851.69 13.09 856.68 11.74L898.64 0.35C899.53 0.03 900.48 -0.08 901.42 0.04C902.36 0.17 903.25 0.51 904.03 1.04C904.81 1.58 905.45 2.29 905.89 3.13C906.34 3.96 906.58 4.89 906.6 5.83L904.11 44.45C903.82 49.03 897.81 51.59 893.81 48.83Z" fill="#E9327C" fill-opacity="1.000000" fill-rule="nonzero"/>
	<path id="Vector" d="M881.29 55.55L858.03 10.06C857.5 9.02 857.27 7.86 857.36 6.69C857.45 5.53 857.86 4.41 858.54 3.46C859.23 2.51 860.16 1.77 861.24 1.32C862.31 0.87 863.5 0.73 864.65 0.91L907.75 7.56C908.75 7.71 909.69 8.1 910.5 8.69C911.32 9.27 911.98 10.05 912.44 10.94C912.89 11.84 913.13 12.83 913.13 13.83C913.13 14.83 912.89 15.82 912.44 16.72L892.58 55.55C892.05 56.59 891.24 57.46 890.24 58.07C889.25 58.67 888.1 59 886.93 59C885.77 58.99 884.62 58.67 883.63 58.06C882.63 57.46 881.82 56.59 881.29 55.55Z" fill="#1DACE3" fill-opacity="1.000000" fill-rule="nonzero"/>
	<path id="Vector" d="M906.49 7.36L885.01 4.05L858.63 11.21L869.16 31.81L893.81 48.83C894.36 49.2 894.96 49.48 895.59 49.67L904.95 31.35L906.49 7.36Z" fill="#3A68B8" fill-opacity="1.000000" fill-rule="nonzero"/>
	<path id="Vector" d="M1015.34 12.68C1015.34 11.88 1015.57 11.1 1016.02 10.44C1016.46 9.77 1017.09 9.25 1017.83 8.95C1018.57 8.64 1019.38 8.56 1020.16 8.72C1020.94 8.88 1021.66 9.26 1022.23 9.82C1022.79 10.39 1023.18 11.11 1023.33 11.89C1023.49 12.68 1023.41 13.49 1023.1 14.23C1022.8 14.96 1022.28 15.59 1021.62 16.04C1020.95 16.48 1020.17 16.72 1019.37 16.72C1018.31 16.71 1017.28 16.28 1016.53 15.52C1015.78 14.77 1015.35 13.75 1015.34 12.68ZM1016.01 18.69L1022.74 18.69L1022.74 41.13L1016.01 41.13L1016.01 18.69Z" fill="#FFFFFF" fill-opacity="1.000000" fill-rule="nonzero"/>
	<path id="Vector" d="M1051.81 29.91C1051.89 31.39 1051.67 32.88 1051.18 34.27C1050.68 35.67 1049.91 36.96 1048.91 38.06C1047.92 39.16 1046.71 40.06 1045.37 40.69C1044.03 41.32 1042.56 41.69 1041.09 41.75C1039.84 41.82 1038.59 41.61 1037.43 41.14C1036.28 40.67 1035.25 39.94 1034.4 39.02L1034.4 50.1L1027.67 50.1L1027.67 18.69L1034.4 18.69L1034.4 20.8C1035.25 19.88 1036.28 19.15 1037.43 18.68C1038.59 18.21 1039.84 18 1041.09 18.07C1042.56 18.13 1044.03 18.5 1045.37 19.13C1046.71 19.76 1047.92 20.66 1048.91 21.76C1049.91 22.86 1050.68 24.14 1051.18 25.54C1051.67 26.94 1051.89 28.43 1051.81 29.91ZM1045.07 29.91C1045.05 28.86 1044.72 27.84 1044.12 26.98C1043.51 26.12 1042.67 25.45 1041.68 25.07C1040.71 24.69 1039.64 24.6 1038.62 24.82C1037.59 25.04 1036.65 25.56 1035.92 26.31C1035.18 27.07 1034.68 28.02 1034.49 29.05C1034.3 30.08 1034.41 31.15 1034.81 32.12C1035.23 33.09 1035.91 33.91 1036.79 34.49C1037.66 35.07 1038.68 35.38 1039.74 35.38C1040.46 35.42 1041.18 35.3 1041.86 35.03C1042.53 34.77 1043.14 34.36 1043.64 33.84C1044.14 33.33 1044.53 32.71 1044.78 32.03C1045.03 31.35 1045.13 30.63 1045.07 29.91Z" fill="#FFFFFF" fill-opacity="1.000000" fill-rule="nonzero"/>
	<path id="Vector" d="M1072.57 34.39C1072.57 39.55 1068.1 41.75 1063.25 41.75C1061.29 41.93 1059.32 41.51 1057.61 40.56C1055.89 39.61 1054.49 38.16 1053.6 36.41L1059.43 33.09C1059.67 33.9 1060.18 34.61 1060.88 35.09C1061.56 35.57 1062.41 35.8 1063.25 35.73C1064.87 35.73 1065.67 35.24 1065.67 34.34C1065.67 31.87 1054.63 33.17 1054.63 25.41C1054.63 20.52 1058.76 18.05 1063.43 18.05C1065.18 18 1066.93 18.42 1068.47 19.26C1070 20.1 1071.29 21.34 1072.18 22.85L1066.43 25.95C1066.18 25.36 1065.77 24.86 1065.24 24.51C1064.69 24.15 1064.07 23.97 1063.43 23.97C1062.27 23.97 1061.55 24.41 1061.55 25.23C1061.55 27.8 1072.57 26.1 1072.57 34.39Z" fill="#FFFFFF" fill-opacity="1.000000" fill-rule="nonzero"/>
	<path id="Vector" d="M1097.18 18.69L1097.18 41.13L1090.44 41.13L1090.44 39.01C1089.67 39.94 1088.68 40.68 1087.56 41.15C1086.44 41.63 1085.24 41.83 1084.03 41.75C1079.5 41.75 1075.64 38.52 1075.64 32.46L1075.64 18.69L1082.37 18.69L1082.37 31.48C1082.31 32.01 1082.38 32.56 1082.55 33.06C1082.72 33.57 1083.01 34.04 1083.38 34.43C1083.75 34.81 1084.19 35.12 1084.69 35.31C1085.19 35.51 1085.74 35.59 1086.28 35.56C1088.74 35.56 1090.46 34.13 1090.46 30.94L1090.46 18.69L1097.18 18.69Z" fill="#FFFFFF" fill-opacity="1.000000" fill-rule="nonzero"/>
	<path id="Vector" d="M1135.75 27.35L1135.75 41.12L1129.02 41.12L1129.02 27.93C1129.02 25.69 1127.93 24.25 1125.79 24.25C1123.55 24.25 1122.29 25.83 1122.29 28.47L1122.29 41.12L1115.56 41.12L1115.56 27.93C1115.56 25.69 1114.48 24.25 1112.32 24.25C1110.09 24.25 1108.82 25.83 1108.82 28.47L1108.82 41.12L1102.1 41.12L1102.1 18.69L1108.84 18.69L1108.84 20.75C1109.54 19.83 1110.46 19.11 1111.51 18.64C1112.56 18.17 1113.71 17.97 1114.85 18.06C1116.01 18 1117.15 18.24 1118.18 18.76C1119.21 19.28 1120.09 20.06 1120.73 21.02C1121.48 20.01 1122.47 19.21 1123.6 18.7C1124.74 18.18 1125.99 17.96 1127.24 18.06C1132.39 18.06 1135.75 21.74 1135.75 27.35Z" fill="#FFFFFF" fill-opacity="1.000000" fill-rule="nonzero"/>
	<path id="Vector" d="M1146.44 13.56C1146.44 16.32 1144.21 18.55 1141.44 18.55C1138.68 18.55 1136.46 16.32 1136.46 13.56C1136.46 10.8 1138.68 8.56 1141.44 8.56C1144.21 8.56 1146.44 10.8 1146.44 13.56Z" fill="#FFFFFF" fill-opacity="1.000000" fill-rule="evenodd"/>
	<path id="Vector" d="M923.45 8.37L930.18 8.37L930.18 41.13L923.45 41.13L923.45 8.37ZM933.99 29.91C933.99 27.56 934.68 25.26 935.98 23.3C937.28 21.34 939.13 19.81 941.3 18.9C943.47 18 945.86 17.76 948.17 18.21C950.48 18.67 952.6 19.79 954.27 21.46C955.93 23.12 957.07 25.23 957.53 27.54C957.99 29.85 957.76 32.24 956.86 34.41C955.96 36.58 954.44 38.44 952.48 39.75C950.53 41.06 948.23 41.75 945.88 41.75C944.31 41.77 942.76 41.48 941.32 40.89C939.87 40.3 938.56 39.43 937.45 38.32C936.34 37.22 935.47 35.91 934.87 34.46C934.28 33.02 933.98 31.47 933.99 29.91ZM951.04 29.91C951.02 28.89 950.69 27.91 950.11 27.08C949.53 26.25 948.71 25.61 947.77 25.24C946.82 24.87 945.79 24.78 944.8 25C943.8 25.21 942.9 25.71 942.19 26.44C941.48 27.17 941 28.09 940.81 29.08C940.63 30.08 940.74 31.11 941.13 32.05C941.52 32.98 942.18 33.78 943.03 34.34C943.88 34.9 944.87 35.2 945.88 35.2C946.58 35.22 947.27 35.1 947.91 34.84C948.56 34.58 949.14 34.19 949.63 33.69C950.11 33.19 950.49 32.6 950.74 31.95C950.98 31.3 951.09 30.6 951.05 29.91L951.04 29.91ZM984.6 18.69L984.6 40C984.6 47.54 978.72 50.72 972.76 50.72C970.66 50.88 968.55 50.46 966.68 49.5C964.8 48.54 963.23 47.09 962.12 45.29L967.87 41.97C968.33 42.91 969.07 43.68 969.98 44.18C970.9 44.69 971.94 44.9 972.98 44.8C973.64 44.89 974.32 44.83 974.96 44.62C975.59 44.42 976.18 44.07 976.66 43.61C977.15 43.15 977.53 42.59 977.76 41.96C978 41.34 978.1 40.67 978.04 40L978.04 37.93C977.25 38.9 976.25 39.66 975.11 40.17C973.98 40.68 972.74 40.91 971.49 40.85C968.53 40.76 965.72 39.52 963.66 37.39C961.6 35.26 960.44 32.42 960.44 29.45C960.44 26.49 961.6 23.65 963.66 21.52C965.72 19.39 968.53 18.15 971.49 18.06C972.74 18 973.98 18.23 975.11 18.74C976.25 19.24 977.25 20.01 978.04 20.97L978.04 18.69L984.6 18.69ZM978.05 29.45C978.1 28.37 977.82 27.3 977.25 26.37C976.68 25.45 975.84 24.72 974.85 24.28C973.87 23.83 972.77 23.69 971.7 23.87C970.63 24.06 969.64 24.56 968.86 25.31C968.08 26.06 967.54 27.03 967.31 28.09C967.08 29.15 967.17 30.25 967.58 31.26C967.98 32.26 968.68 33.13 969.58 33.73C970.47 34.34 971.53 34.67 972.62 34.67C973.33 34.72 974.04 34.62 974.7 34.38C975.37 34.14 975.98 33.76 976.49 33.27C977 32.78 977.4 32.18 977.67 31.53C977.94 30.87 978.07 30.17 978.05 29.46L978.05 29.45ZM988.41 29.89C988.41 27.54 989.1 25.24 990.4 23.28C991.7 21.32 993.55 19.79 995.72 18.89C997.89 17.98 1000.29 17.74 1002.6 18.2C1004.9 18.65 1007.02 19.78 1008.69 21.44C1010.36 23.1 1011.49 25.22 1011.95 27.52C1012.41 29.83 1012.18 32.22 1011.28 34.39C1010.38 36.57 1008.86 38.43 1006.91 39.73C1004.95 41.04 1002.65 41.74 1000.3 41.74C998.74 41.76 997.19 41.46 995.74 40.87C994.3 40.29 992.98 39.42 991.87 38.31C990.77 37.21 989.89 35.9 989.3 34.46C988.7 33.02 988.4 31.47 988.41 29.91L988.41 29.89ZM1005.47 29.89C1005.44 28.88 1005.12 27.89 1004.53 27.06C1003.95 26.23 1003.14 25.59 1002.19 25.22C1001.24 24.85 1000.21 24.76 999.21 24.98C998.22 25.19 997.31 25.69 996.6 26.42C995.9 27.15 995.42 28.07 995.23 29.07C995.04 30.06 995.15 31.1 995.55 32.03C995.94 32.97 996.6 33.77 997.45 34.33C998.29 34.89 999.29 35.19 1000.31 35.19C1001 35.21 1001.69 35.08 1002.33 34.82C1002.97 34.56 1003.56 34.17 1004.04 33.67C1004.52 33.18 1004.9 32.59 1005.15 31.94C1005.39 31.29 1005.5 30.6 1005.47 29.91L1005.47 29.89Z" fill="#FFFFFF" fill-opacity="1.000000" fill-rule="nonzero"/>
</svg>
